<?xml version="1.0" encoding="utf-8"?>
<!-- Generator: Adobe Illustrator 18.1.1, SVG Export Plug-In . SVG Version: 6.00 Build 0)  -->
<svg version="1.1" id="Layer_1" xmlns="http://www.w3.org/2000/svg" xmlns:xlink="http://www.w3.org/1999/xlink" x="0px" y="0px"
	 viewBox="72 -152.9 394.4 554.9" enable-background="new 72 -152.9 394.4 554.9" xml:space="preserve">
<filter  height="1.5149" width="1.615501" id="filter3537" x="-0.307751" y="-0.25745">
	<feGaussianBlur  stdDeviation="13.005789" id="feGaussianBlur3539"></feGaussianBlur>
</filter>
<g>
	<title>Layer 1</title>
	<g id="layer1">
		<g id="g2462">
			
				<path id="path2530" marker-start="none" marker-mid="none" marker-end="none" opacity="0.6986" fill="#007FFF" fill-opacity="0.53" enable-background="new    " d="
				M436.4,16.6c0,42.5-35.5,77-79.1,77s-79.9-34.5-79.1-77c1.1-57,44.6-80.2,79.1-145.7C394-65.7,436.4-25.9,436.4,16.6z"/>
			
				<path id="path3520" marker-start="none" marker-mid="none" marker-end="none" opacity="0.6986" fill="#007FFF" enable-background="new    " d="
				M433.7,16.4c0,40.8-34,73.9-76,73.9c-41.9,0-76.8-33.1-76-73.9c1-54.7,42.8-77,76-139.9C393-62.6,433.7-24.4,433.7,16.4z"/>
			
				<path id="path3542" marker-start="none" marker-mid="none" marker-end="none" opacity="0.6986" fill="#007FFF" enable-background="new    " d="
				M432.4,14.9c0,40.3-33.6,73-75.1,73c-41.4,0-75.8-32.7-75.1-73c1-54.1,42.3-76.1,75.1-138.2C379.8,77.1,432.4-25.5,432.4,14.9z"
				/>
			
				<path id="path3556" marker-start="none" marker-mid="none" marker-end="none" opacity="0.6986" fill="#007FFF" enable-background="new    " d="
				M436.4,16c0,42.5-35.5,77-79.1,77s-79.9-34.5-79.1-77c1.1-57,44.6-80.2,79.1-145.7C394-66.4,436.4-26.5,436.4,16z"/>
			
				<g id="path3541" marker-start="none" marker-mid="none" marker-end="none" opacity="0.8232" filter="url(#filter3537)" enable-background="new    ">
				<path opacity="0.8006" fill="#007FFF" d="M328.6-58.9c9.4,3.2,12.9,10.7,7.9,16.7c-5.1,6-16.8,8.2-26.3,5l0,0
					c-9.4-3.2-12.9-10.7-7.9-16.7S319.2-62.2,328.6-58.9z"/>
			</g>
		</g>
	</g>
</g>
<g>
	<title>Layer 1</title>
	<g id="layer1_1_">
		<g id="g2462_1_">
			
				<path id="path2530_1_" marker-start="none" marker-mid="none" marker-end="none" opacity="0.6986" fill="#007FFF" fill-opacity="0.53" enable-background="new    " d="
				M305.7,170.4c0,56.2-46.9,101.8-104.6,101.8S95.4,226.5,96.5,170.4c1.4-75.3,58.9-106,104.6-192.6
				C249.6,61.5,305.7,114.2,305.7,170.4z"/>
			
				<path id="path3520_1_" marker-start="none" marker-mid="none" marker-end="none" opacity="0.6986" fill="#007FFF" enable-background="new    " d="
				M302.1,170.1c0,53.9-45,97.7-100.4,97.7c-55.4,0-101.5-43.8-100.4-97.7c1.4-72.3,56.6-101.8,100.4-184.9
				C248.2,65.6,302.1,116.2,302.1,170.1z"/>
			
				<path id="path3542_1_" marker-start="none" marker-mid="none" marker-end="none" opacity="0.6986" fill="#007FFF" enable-background="new    " d="
				M300.3,168c0,53.3-44.5,96.5-99.2,96.5c-54.8,0-100.3-43.3-99.2-96.5c1.3-71.5,55.9-100.6,99.2-182.7
				C230.8,250.3,300.3,114.7,300.3,168z"/>
			
				<path id="path3556_1_" marker-start="none" marker-mid="none" marker-end="none" opacity="0.6986" fill="#007FFF" enable-background="new    " d="
				M305.7,169.5c0,56.2-46.9,101.8-104.6,101.8S95.4,225.7,96.5,169.5c1.4-75.3,58.9-106,104.6-192.6
				C249.6,60.7,305.7,113.4,305.7,169.5z"/>
			
				<g id="path3541_1_" marker-start="none" marker-mid="none" marker-end="none" opacity="0.8232" filter="url(#filter3537)" enable-background="new    ">
				<path opacity="0.8006" fill="#007FFF" d="M163.2,70.5c12.5,4.3,17.1,14.2,10.4,22.1s-22.3,10.9-34.7,6.6l0,0
					c-12.5-4.3-17.1-14.2-10.4-22.1C135.2,69.2,150.7,66.2,163.2,70.5z"/>
			</g>
		</g>
	</g>
</g>
</svg>
