<?xml version="1.0" encoding="utf-8"?>
<!-- Generator: Adobe Illustrator 21.1.0, SVG Export Plug-In . SVG Version: 6.00 Build 0)  -->
<svg version="1.1" id="Capa_1" xmlns="http://www.w3.org/2000/svg" xmlns:xlink="http://www.w3.org/1999/xlink" x="0px" y="0px"
	 viewBox="0 0 600 600" style="enable-background:new 0 0 600 600;" xml:space="preserve">
<polyline points="392.7,140.7 421.3,90.7 542.7,300 484.7,300 392.7,140.7 "/>
<polyline points="179.3,510 208,460 392.7,460 421.3,510 179.3,510 "/>
<polyline points="58,300 179.3,90.7 208,140.7 116,300 58,300 "/>
<path d="M160,57.3L19.3,300L160,543.3h280.7l140-243.3l-140-242.7H160 M0,300L150,40h300l150,260L450,560H150L0,300"/>
<polyline points="154,300 227.3,174 373.3,174 446,300 373.3,426.7 227.3,426.7 154,300 "/>
</svg>
