<?xml version="1.0" encoding="utf-8"?>
<!-- Generator: Adobe Illustrator 21.1.0, SVG Export Plug-In . SVG Version: 6.00 Build 0)  -->
<svg version="1.1" id="Capa_1" xmlns="http://www.w3.org/2000/svg" xmlns:xlink="http://www.w3.org/1999/xlink" x="0px" y="0px"
	 viewBox="0 0 600 600" style="enable-background:new 0 0 600 600;" xml:space="preserve">
<g>
	<path d="M300,600c-19.1,0-38.2,0-57.3,0c-0.2,0-0.6,0.1-0.7-0.1c-0.1-0.2,0.1-0.5,0.3-0.7c7-12.1,13.9-24.1,20.9-36.2
		c5.8-10,11.6-20.1,17.4-30.1c6.3-10.9,12.6-21.9,19-32.8c0.1-0.3,0.2-0.7,0.5-0.7c0.3,0,0.4,0.4,0.5,0.7
		c5.9,10.2,11.7,20.3,17.6,30.5c6.7,11.5,13.3,23.1,20,34.6c6.6,11.4,13.2,22.8,19.8,34.2c0.4,0.6,0.3,0.6-0.4,0.6
		C338.4,600,319.2,600,300,600z"/>
</g>
<g>
	<path d="M600,324.8c0,19.1,0,38.2,0,57.3c0,0.2,0.1,0.6-0.1,0.7c-0.2,0.1-0.5-0.1-0.7-0.3c-12.1-7-24.1-13.9-36.2-20.9
		c-10-5.8-20.1-11.6-30.1-17.4c-10.9-6.3-21.9-12.6-32.8-19c-0.3-0.1-0.7-0.2-0.7-0.5c0-0.3,0.4-0.4,0.7-0.5
		c10.2-5.9,20.3-11.7,30.5-17.6c11.5-6.7,23.1-13.3,34.6-20c11.4-6.6,22.8-13.2,34.2-19.8c0.6-0.4,0.6-0.3,0.6,0.4
		C600,286.4,600,305.6,600,324.8z"/>
</g>
<g>
	<path d="M0,299.7c0-19.1,0-38.2,0-57.3c0-0.2-0.1-0.6,0.1-0.7c0.2-0.1,0.5,0.1,0.7,0.3c12.1,7,24.1,13.9,36.2,20.9
		c10,5.8,20.1,11.6,30.1,17.4c10.9,6.3,21.9,12.6,32.8,19c0.3,0.1,0.7,0.2,0.7,0.5c0,0.3-0.4,0.4-0.7,0.5
		c-10.2,5.9-20.3,11.7-30.5,17.6c-11.5,6.7-23.1,13.3-34.6,20C23.5,344.4,12,351,0.6,357.6C0,357.9,0,357.9,0,357.2
		C0,338,0,318.8,0,299.7z"/>
</g>
<g>
	<path d="M308.1,0c19.1,0,38.2,0,57.3,0c0.2,0,0.6-0.1,0.7,0.1c0.1,0.2-0.1,0.5-0.3,0.7c-7,12.1-13.9,24.1-20.9,36.2
		c-5.8,10-11.6,20.1-17.4,30.1c-6.3,10.9-12.6,21.9-19,32.8c-0.1,0.3-0.2,0.7-0.5,0.7c-0.3,0-0.4-0.4-0.5-0.7
		c-5.9-10.2-11.7-20.3-17.6-30.5c-6.7-11.5-13.3-23.1-20-34.6c-6.6-11.4-13.2-22.8-19.8-34.2C249.9,0,249.9,0,250.6,0
		C269.8,0,289,0,308.1,0z"/>
</g>
</svg>
