<?xml version="1.0" encoding="utf-8"?>
<!-- Generator: Adobe Illustrator 21.1.0, SVG Export Plug-In . SVG Version: 6.00 Build 0)  -->
<svg version="1.1" id="Capa_1" xmlns="http://www.w3.org/2000/svg" xmlns:xlink="http://www.w3.org/1999/xlink" x="0px" y="0px"
	 width="80px" height="80px" viewBox="0 0 80 80" enable-background="new 0 0 80 80" xml:space="preserve">
<g>
	<path fill="#22B573" d="M0,40c0,7.2,1.9,13.9,5.2,19.7L40,0C17.9,0,0,17.9,0,40z"/>
	<path fill="#22B573" d="M5.4,60C12.3,72,25.2,80,40,80c14.8,0,27.7-8,34.6-20L5.4,60C5.4,60,5.4,60,5.4,60z"/>
	<path fill="#22B573" d="M80,40C80,17.9,62.1,0,40,0l34.8,59.7C78.1,53.9,80,47.2,80,40z"/>
	<path fill="#22B573" d="M5,60h0.4c-0.1-0.1-0.1-0.2-0.2-0.3L5,60z"/>
	<path fill="#22B573" d="M74.8,59.7c-0.1,0.1-0.1,0.2-0.2,0.3H75L74.8,59.7z"/>
</g>
<g>
</g>
<g>
</g>
<g>
</g>
<g>
</g>
<g>
</g>
<g>
</g>
<g>
</g>
<g>
</g>
<g>
</g>
<g>
</g>
<g>
</g>
<g>
</g>
<g>
</g>
<g>
</g>
<g>
</g>
</svg>
